PathFileType	4	(X/Y/Z)	 s10c0103.trc
DataRate	CameraRate	NumFrames	NumMarkers	Units	OrigDataRate	OrigDataStartFrame	OrigNumFrames
200	200	7	50	mm	200	1751	2000
Frame#	Time	racr			lacr			c7			jug			rlel			rdr			llel			ldr			s2			lic			ric			lasi			rasi			rpsi			lpsi			rgt			lgt			rth1			rth2			rth3			rth4			rlfc			rmfc			rsh1			rsh2			rsh3			rsh4			rlmal			rmmal			rcal			rtoe			rmt5			lth1			lth2			lth4			lth3			llfc			lmfc			llmal			lmmal			lcal			lmt5			lsh1			lsh2			lsh3			lsh4			ltoe			SBIKE			LBIKE			RBIKE			
		X1	Y1	Z1	X2	Y2	Z2	X3	Y3	Z3	X4	Y4	Z4	X5	Y5	Z5	X6	Y6	Z6	X7	Y7	Z7	X8	Y8	Z8	X9	Y9	Z9	X10	Y10	Z10	X11	Y11	Z11	X12	Y12	Z12	X13	Y13	Z13	X14	Y14	Z14	X15	Y15	Z15	X16	Y16	Z16	X17	Y17	Z17	X18	Y18	Z18	X19	Y19	Z19	X20	Y20	Z20	X21	Y21	Z21	X22	Y22	Z22	X23	Y23	Z23	X24	Y24	Z24	X25	Y25	Z25	X26	Y26	Z26	X27	Y27	Z27	X28	Y28	Z28	X29	Y29	Z29	X30	Y30	Z30	X31	Y31	Z31	X32	Y32	Z32	X33	Y33	Z33	X34	Y34	Z34	X35	Y35	Z35	X36	Y36	Z36	X37	Y37	Z37	X38	Y38	Z38	X39	Y39	Z39	X40	Y40	Z40	X41	Y41	Z41	X42	Y42	Z42	X43	Y43	Z43	X44	Y44	Z44	X45	Y45	Z45	X46	Y46	Z46	X47	Y47	Z47	X48	Y48	Z48	X49	Y49	Z49	X50	Y50	Z50	
1751	8.7550	438.520495	1290.242918	-43.796736	441.921682	1291.526316	-337.008127	389.240657	1329.665165	-194.183301	412.728168	1187.726272	-203.934087	498.743963	1043.794125	51.712927	642.264072	876.119203	-8.055561	509.111743	1037.890294	-443.559701	658.496594	884.352869	-371.132526	-113.640200	1077.781312	-214.226844	57.366655	1107.216303	-358.305840	52.337886	1108.388491	-60.517629	91.434774	1021.655550	-319.987291	62.058639	1022.846100	-64.201694	-79.097260	1136.243025	-156.214199	-66.660973	1148.495251	-266.567225	-50.805272	980.649877	-19.292192	-7.424504	964.887960	-405.589436	27.009965	849.517800	-0.637962	94.547817	792.685996	-14.096986	121.770748	713.315370	-30.543146	124.405876	815.551871	-14.751358	196.556936	634.511348	-45.408893	189.039045	621.823441	-160.174873	156.108707	525.434571	-13.092581	177.364698	439.331046	-23.055465	153.078924	356.300596	-28.345200	208.564152	441.708031	-45.788968	153.788047	247.850285	-43.365930	176.993291	270.218367	-122.970458	110.013108	217.526671	-94.064288	349.425036	244.564497	-81.667336	272.967668	199.081411	-22.145091	108.788056	903.193489	-400.904728	192.704487	898.899935	-379.426384	201.238805	931.815213	-364.313238	266.743711	850.598938	-369.434296	349.887920	797.168749	-339.787450	326.988564	773.936635	-219.224163	41.013932	576.750006	-374.920604	50.458837	561.594698	-294.089269	-22.600933	582.659703	-334.800157	73.174996	432.409942	-395.439633	245.320379	735.760218	-382.494525	196.961112	662.153864	-375.287636	116.762020	624.605336	-381.046338	215.212620	642.044818	-348.338894	152.206498	398.912741	-335.875156	-204.619261	832.155564	-223.889152	-78.166805	81.739695	-423.501275	-102.532059	80.364504	-24.303536	
1752	8.7600	440.152108	1290.714324	-47.599357	439.917320	1291.128710	-340.306160	388.900972	1329.460227	-196.253529	412.569514	1187.530719	-206.203996	500.100793	1044.758575	51.060590	642.594597	875.815220	-8.336620	507.970523	1036.993084	-444.733152	658.237595	884.606586	-371.377236	-114.037095	1077.217370	-211.117127	56.488058	1107.817434	-356.868042	53.887384	1107.612419	-59.477180	92.180044	1021.629730	-319.436461	63.020636	1021.974621	-63.705810	-80.420413	1136.918649	-151.695260	-66.933819	1148.112319	-263.627787	-49.935863	979.799308	-18.846748	-7.299134	966.252411	-404.266746	24.717218	847.614300	-0.543034	90.770685	788.842540	-13.480351	115.782596	708.762444	-29.886836	121.309397	810.878720	-14.545407	188.698962	627.688922	-45.311781	179.271620	614.960191	-160.217129	149.853054	518.657645	-13.283791	171.148903	432.590468	-23.931789	147.111141	349.813247	-28.738311	201.735838	435.199787	-47.477322	146.610644	241.839754	-43.996485	170.562491	264.403131	-123.487868	103.039752	212.069589	-94.924204	342.622663	236.109243	-81.917759	265.480415	191.403005	-22.657024	110.922981	909.315763	-400.242117	195.043567	907.596611	-378.203177	202.211568	940.562845	-362.644734	270.532740	861.670294	-368.894704	356.403206	809.138655	-337.686273	333.512767	785.356292	-217.254735	50.747758	585.271628	-374.068958	60.095690	569.452508	-293.453866	-12.181211	591.449401	-334.209595	81.646579	440.097911	-395.011453	253.442937	746.022344	-381.405836	205.619349	672.198750	-374.255445	125.372332	633.778374	-379.983282	223.863507	652.189380	-347.386866	159.053386	404.419352	-334.391717	-204.604257	832.183851	-223.872080	-78.168792	81.767508	-423.504052	-102.532774	80.364731	-24.301867	
1753	8.7650	441.590546	1291.258550	-51.487173	437.925138	1290.606765	-343.585300	388.585877	1329.670437	-198.208692	411.542447	1187.607673	-208.421085	501.361866	1045.703715	50.355265	642.461327	875.085579	-9.839131	506.744607	1036.000633	-445.866319	658.020651	884.851352	-371.732284	-113.447673	1077.664859	-209.036985	55.753273	1108.747004	-355.401210	55.615934	1106.983758	-58.583232	93.016352	1022.165719	-319.152499	63.891252	1021.421254	-63.815518	-80.677653	1137.224245	-147.859814	-67.133309	1147.731888	-260.821872	-49.036945	979.213744	-18.593386	-7.799222	968.027023	-402.308926	22.593885	846.182030	-0.158525	87.004132	785.554131	-12.725702	110.186594	704.548776	-28.801850	118.600797	806.767521	-14.179729	180.783478	621.639085	-45.103507	169.615671	608.638391	-159.938655	143.257136	513.111993	-13.404189	164.628787	427.327585	-24.579517	141.014833	344.328933	-29.106539	194.599525	429.918930	-48.676094	139.306858	236.174737	-44.521324	164.122214	258.638221	-123.694172	95.557389	207.378079	-95.571784	335.503155	227.946221	-82.334888	257.707742	184.390720	-23.136187	112.763637	915.538570	-400.183555	196.669148	916.343302	-377.356289	202.654640	949.259907	-360.922039	273.562096	872.743479	-368.406299	362.527737	821.278303	-336.080707	340.117003	797.095880	-215.408124	60.875447	593.131076	-373.297437	71.256375	576.779714	-293.395848	-1.372854	599.575277	-333.698817	90.465853	447.187271	-394.452269	261.728857	756.168970	-380.315669	214.626457	682.347364	-373.590510	134.593620	642.899419	-379.082359	232.886705	662.421528	-346.338054	167.104066	410.174948	-333.741173	-204.579394	832.205499	-223.853934	-78.185396	81.792954	-423.520685	-102.568593	80.366667	-24.344288	
1754	8.7700	442.911319	1292.001030	-55.250873	435.936215	1289.999490	-346.847315	388.460455	1329.433672	-200.197106	411.352482	1187.310908	-210.209718	502.604058	1046.632475	49.503609	642.694838	875.004444	-10.253949	505.498513	1034.938119	-447.201009	657.791490	885.086456	-372.190961	-112.971938	1078.792716	-206.115807	55.037066	1110.185626	-353.898465	57.391860	1106.438809	-57.889258	93.836501	1024.033282	-319.434108	64.792774	1021.192918	-64.221624	-79.391776	1136.969719	-145.053487	-67.445042	1147.680563	-258.016441	-47.866230	978.898724	-18.915627	-8.034096	970.681281	-400.964019	20.867594	844.819464	0.223409	83.749006	782.573231	-11.665851	104.808622	700.869881	-27.229853	115.902183	802.924538	-13.814832	172.924880	616.262452	-44.730177	159.984627	603.142850	-159.469843	136.120369	508.643619	-13.486981	157.800348	422.936360	-25.035378	134.555387	339.857741	-29.234764	187.403517	425.648876	-49.484820	131.760918	231.439903	-45.047192	156.569884	253.694358	-123.904412	87.844543	203.573894	-96.228329	327.935733	220.404131	-82.674024	249.428873	177.896300	-23.613253	113.598124	921.257298	-399.048494	197.765272	924.979990	-376.510086	202.536137	957.823504	-359.386987	276.064968	883.653398	-367.703166	368.307482	833.542169	-334.645002	346.476542	808.971124	-213.521787	71.504609	600.451765	-372.683940	81.950862	584.159856	-292.338480	9.696933	607.128520	-332.808899	99.368082	453.691997	-393.529240	269.510618	766.639299	-379.356912	223.306877	691.786398	-372.500980	144.040890	651.601265	-378.126540	241.817472	672.353159	-345.131293	175.646690	415.520994	-333.333652	-204.579845	832.187076	-224.043579	-78.211017	81.792082	-423.545823	-102.603348	80.378188	-24.360980	
1755	8.7750	443.991720	1292.777052	-58.943004	433.951209	1289.294803	-350.045978	388.450876	1329.101397	-202.171824	411.165352	1186.885670	-211.768210	503.718070	1047.536921	48.482370	642.945753	874.967965	-10.574346	504.486940	1033.855122	-448.231797	657.541934	885.363148	-372.765252	-112.230872	1078.855816	-204.166011	54.507457	1111.872045	-352.320795	59.060267	1105.846171	-57.862994	94.429246	1026.224083	-319.912870	66.043344	1020.970119	-64.798241	-78.338474	1136.691599	-142.395632	-67.379370	1147.529260	-255.445536	-46.889470	978.688968	-18.703694	-8.381168	973.918827	-399.704605	19.354051	843.964069	1.172298	80.678742	780.089447	-10.507376	99.708833	697.667347	-25.372292	113.274249	799.674692	-13.372776	165.155354	611.861118	-44.219111	151.077395	598.361251	-159.101553	128.720832	504.852859	-13.549070	150.783567	419.360533	-25.056081	127.665055	335.998153	-29.180947	179.906549	422.035394	-50.111363	123.938335	227.325893	-45.282578	149.069318	248.958027	-123.959663	79.784767	200.000431	-97.055830	320.116491	213.431156	-83.066988	240.890648	171.934860	-24.078864	115.218612	928.063873	-399.911129	198.529932	933.803826	-376.368430	202.206538	966.136043	-358.000773	277.964943	894.343660	-367.178222	373.690500	845.682910	-333.208120	353.238707	821.153112	-211.971852	82.482862	607.155642	-372.284993	92.983470	590.675526	-292.091417	21.004010	614.200241	-332.410934	108.965347	459.841225	-392.780618	277.596831	776.739272	-378.636948	232.235069	701.753700	-371.516058	153.645179	660.028909	-377.405646	251.033570	682.376236	-344.025425	184.328156	420.079212	-332.548200	-204.535904	832.233605	-223.915289	-78.231613	81.819154	-423.597149	-102.639932	80.382749	-24.412257	
1756	8.7800	444.831298	1293.479441	-62.331692	432.100491	1288.492362	-353.144960	388.621229	1328.341742	-203.941853	411.572517	1186.083446	-212.856062	504.721715	1048.350592	47.339701	643.271351	874.999713	-10.851615	502.810947	1032.688198	-450.062352	657.267536	885.557718	-373.214041	-112.046691	1081.512450	-202.784372	54.123021	1113.843158	-350.805519	60.874196	1105.223711	-57.435522	94.771764	1028.072138	-319.829627	67.285147	1020.712501	-65.538897	-77.727798	1136.947584	-140.633559	-67.450720	1147.672272	-252.973992	-46.037000	978.059243	-18.713054	-8.891101	977.588512	-398.620965	17.907056	843.445414	2.140722	77.988370	778.028953	-9.276064	94.807648	695.246788	-23.610116	110.805975	796.959372	-12.899543	157.695566	608.283941	-43.494278	142.836801	594.617463	-158.850073	121.114837	501.845160	-13.448205	143.239631	416.124394	-25.062646	120.091683	332.980591	-29.078194	172.228463	418.971403	-50.266114	115.880903	223.838190	-45.637508	141.467554	245.040182	-123.942451	71.442023	197.298767	-97.638649	311.951214	206.822519	-83.513606	232.055517	166.669145	-24.647792	115.973005	934.372500	-399.732569	198.956103	942.133616	-375.637847	201.659210	974.134500	-356.827286	279.466161	904.761092	-366.722195	378.393544	858.916415	-333.344414	359.785551	832.989119	-210.230326	93.731270	613.390257	-371.896452	103.950822	596.733476	-291.854846	32.259137	620.472311	-332.009163	118.893316	465.375859	-391.961560	285.279668	787.135760	-377.512412	241.229330	711.344648	-370.386919	163.625181	667.955878	-376.437233	260.340864	692.417791	-342.937848	193.375086	424.736061	-331.966062	-204.498815	832.266182	-223.848701	-78.240571	81.848455	-423.628098	-102.658666	80.394699	-24.434682	
1757	8.7850	445.500653	1294.011274	-65.392417	430.391306	1287.696407	-356.143078	388.939191	1327.976611	-205.614959	411.086906	1185.516641	-213.903627	505.621147	1049.087098	46.011266	643.446857	874.575035	-11.239034	501.415711	1031.482449	-451.547307	656.963778	885.695907	-373.562381	-112.138131	1081.605613	-200.316599	53.795547	1115.752625	-349.345397	62.757015	1104.480618	-57.032631	95.067761	1030.691143	-319.526665	68.545519	1020.372442	-66.382937	-76.615848	1137.244263	-138.878621	-67.352165	1147.901385	-250.692389	-45.435096	978.232678	-17.592078	-9.636090	981.612150	-397.743362	16.415167	843.107493	3.117396	75.222172	776.550390	-8.170880	90.194079	693.368655	-22.101497	108.282480	794.871864	-12.692890	150.758957	605.339599	-42.755720	134.834482	592.046608	-158.599734	113.768138	499.371766	-13.237355	135.421881	413.588581	-24.997915	111.815769	330.512598	-29.029927	164.612594	416.178303	-49.934543	107.505883	221.155712	-45.871035	133.291700	241.760330	-123.968512	62.814460	195.478763	-98.120924	303.414550	200.756630	-83.860934	222.799741	161.999895	-25.130592	116.455101	940.697715	-399.574180	199.056114	950.406408	-375.628907	200.846966	981.934920	-355.744840	280.557455	914.931069	-366.426676	382.684172	871.449283	-332.457715	365.756077	846.114683	-208.763557	104.386370	618.858914	-371.621691	115.008183	602.735097	-291.471886	43.235633	625.875000	-331.744461	129.135216	470.429075	-391.172334	292.665111	797.509665	-376.524268	250.277203	721.065345	-369.268388	173.595041	675.866987	-375.658243	269.584525	702.438578	-341.984377	202.921748	429.088373	-331.653449	-204.462847	832.293451	-223.770241	-78.251354	81.848930	-423.618947	-102.645374	80.400480	-24.427291	
